<svg width="80" height="80" viewBox="0 0 80 80" fill="none" xmlns="http://www.w3.org/2000/svg">
<g clip-path="url(#clip0_116_2094)">
<path d="M33.3488 5.34888C17.8906 5.34888 5.35938 17.8801 5.35938 33.3383C5.35938 48.7964 17.8906 61.3276 33.3488 61.3276C48.8069 61.3276 61.3381 48.7964 61.3381 33.3383C61.3213 17.8871 48.7999 5.3657 33.3488 5.34888ZM33.3488 8.01453C41.5816 8.02103 49.2965 12.0335 54.0289 18.7705L50.6968 22.1025C49.886 21.6119 48.9577 21.3493 48.0099 21.3428C45.0655 21.3428 42.6786 23.7297 42.6786 26.6741C42.6832 27.6229 42.9443 28.5527 43.4343 29.3651L34.7069 38.0925C33.0544 37.0848 30.9775 37.0848 29.325 38.0925L23.2633 32.0308C23.7532 31.2184 24.0143 30.2886 24.019 29.3398C24.0226 26.4012 21.6435 24.0161 18.705 24.0125C16.2747 24.0095 14.1514 25.6533 13.5456 28.007H8.60081C11.1244 16.3535 21.4253 8.03203 33.3488 8.01453ZM50.6755 26.6741C50.6755 28.1464 49.4821 29.3398 48.0099 29.3398C46.5376 29.3398 45.3442 28.1464 45.3442 26.6741C45.3442 25.2018 46.5376 24.0085 48.0099 24.0085C49.4821 24.0085 50.6755 25.2018 50.6755 26.6741ZM34.6816 42.6681C34.6816 44.1403 33.4882 45.3337 32.0159 45.3337C30.5437 45.3337 29.3503 44.1403 29.3503 42.6681C29.3503 41.1958 30.5437 40.0024 32.0159 40.0024C33.4882 40.0024 34.6816 41.1958 34.6816 42.6681ZM21.3533 29.3398C21.3533 30.8121 20.1599 32.0054 18.6877 32.0054C17.2154 32.0054 16.022 30.8121 16.022 29.3398C16.022 27.8675 17.2154 26.6741 18.6877 26.6741C20.1599 26.6741 21.3533 27.8675 21.3533 29.3398ZM45.6531 55.4809C41.8892 57.5707 37.6541 58.6657 33.3488 58.6618C19.3724 58.6713 8.03453 47.3491 8.02503 33.3728C8.02436 32.4708 8.07201 31.5693 8.16764 30.6724H13.5456C14.1515 33.0191 16.2641 34.6618 18.6877 34.6709C19.6365 34.6663 20.5663 34.4052 21.3786 33.9152L27.4403 39.9769C26.9504 40.7893 26.6893 41.7191 26.6846 42.6679C26.6846 45.6123 29.0716 47.9992 32.0159 47.9992C34.9603 47.9992 37.3472 45.6123 37.3472 42.6679C37.3426 41.7191 37.0815 40.7893 36.5915 39.9769L45.3189 31.2496C46.1312 31.7395 47.0611 32.0006 48.0099 32.0053C50.9543 32.0053 53.3412 29.6183 53.3412 26.674C53.3365 25.7251 53.0754 24.7953 52.5855 23.983L55.491 21.0787C62.2743 33.2954 57.8696 48.6978 45.6531 55.4809Z" fill="#283C9D"/>
<path d="M66.6717 13.3459C69.0953 13.3368 71.2078 11.6942 71.8137 9.34744H79.9999V6.68179H71.8137C71.2078 4.33501 69.0953 2.69247 66.6717 2.6833C63.7273 2.6833 61.3404 5.07023 61.3404 8.01462C61.345 8.96342 61.6061 9.89324 62.0961 10.7056L59.7543 13.0474C48.5494 -1.55059 27.632 -4.30122 13.034 6.9037C-1.56396 18.1086 -4.31458 39.0262 6.89034 53.6242C17.467 67.4034 36.8548 70.746 51.4348 61.3037L55.4573 65.3262L57.3419 67.2108L68.0711 77.9401C70.7999 80.6689 75.2239 80.6689 77.9527 77.9401C80.6815 75.2113 80.6815 70.7873 77.9527 68.0585L67.2235 57.3293L65.3388 55.4446L61.3164 51.4222C68.4568 40.4237 68.4568 26.2532 61.3164 15.2545L63.982 12.5889C64.7939 13.079 65.7234 13.3406 66.6717 13.3459ZM66.6717 5.34896C68.1439 5.34896 69.3373 6.54234 69.3373 8.01462C69.3373 9.48689 68.1439 10.6803 66.6717 10.6803C65.1994 10.6803 64.006 9.48689 64.006 8.01462C64.006 6.54234 65.1996 5.34896 66.6717 5.34896ZM76.0681 69.9431C77.7751 71.6118 77.8063 74.3485 76.1376 76.0555C74.4689 77.7625 71.7322 77.7937 70.0252 76.125C70.0017 76.1021 69.9788 76.079 69.9558 76.0555L59.2265 65.3262L65.3388 59.2139L76.0681 69.9431ZM63.4542 57.3293L57.3419 63.4416L53.6526 59.7523C53.8405 59.6084 54.0165 59.4498 54.2017 59.3018C54.387 59.1539 54.6016 58.9766 54.8002 58.81C55.0921 58.5648 55.3799 58.3169 55.6625 58.0623C55.8078 57.929 55.9464 57.7957 56.089 57.6625C56.6355 57.1507 57.1646 56.6215 57.6764 56.0751C57.8097 55.9325 57.943 55.7938 58.0763 55.6486C58.3308 55.366 58.5787 55.0781 58.824 54.7862C58.9911 54.589 59.155 54.3895 59.3158 54.1878C59.4624 54.0038 59.621 53.8279 59.765 53.64L63.4542 57.3293ZM58.2855 51.1383C57.8657 51.7247 57.4325 52.2992 56.9753 52.8523C56.8421 53.0136 56.6995 53.1695 56.5622 53.3281C56.1543 53.8026 55.7331 54.2629 55.2986 54.7089C55.1094 54.9043 54.917 55.0968 54.7215 55.286C54.2772 55.7205 53.817 56.1417 53.3407 56.5495C53.1821 56.6828 53.0262 56.8281 52.8649 56.9627C52.3118 57.4199 51.7373 57.8531 51.1509 58.2729C37.3535 68.13 18.1776 64.9357 8.32046 51.1383C-1.53663 37.3408 1.65765 18.1649 15.4551 8.30784C29.2525 -1.54926 48.4284 1.64486 58.2855 15.4425C65.9128 26.1188 65.9128 40.462 58.2855 51.1383Z" fill="#283C9D"/>
</g>
<defs>
<clipPath id="clip0_116_2094">
<rect width="80" height="80" fill="white"/>
</clipPath>
</defs>
</svg>
