<svg width="80" height="80" viewBox="0 0 80 80" fill="none" xmlns="http://www.w3.org/2000/svg">
<path d="M77.4896 11.5393C77.4896 6.72716 73.5745 2.81201 68.7624 2.81201H11.2351C6.42297 2.81201 2.50781 6.72716 2.50781 11.5393V50.0847V54.3393C2.50781 59.1514 6.42297 63.0666 11.2351 63.0666H26.4957V68.1817H24.0351C21.5624 68.1817 19.5381 70.1938 19.5381 72.6787C19.5381 75.1635 21.5502 77.1757 24.0351 77.1757H55.9624C58.4351 77.1757 60.4593 75.1635 60.4593 72.6787C60.4593 70.1938 58.4472 68.1817 55.9624 68.1817H53.5018V63.0666H68.7624C73.5745 63.0666 77.4896 59.1514 77.4896 54.3393V50.0847V11.5393ZM4.7866 11.5393C4.7866 7.97565 7.68357 5.0908 11.2351 5.0908H68.7624C72.326 5.0908 75.2109 7.98777 75.2109 11.5393V48.9453H4.7866V11.5393ZM58.1805 72.6908C58.1805 73.915 57.1866 74.909 55.9624 74.909H24.0351C22.8108 74.909 21.8169 73.915 21.8169 72.6908C21.8169 71.4666 22.8108 70.4726 24.0351 70.4726H27.6351H52.3624H55.9624C57.1866 70.4726 58.1805 71.4666 58.1805 72.6908ZM51.223 68.1938H28.7745V63.0787H51.2351V68.1938H51.223ZM75.2109 54.3393C75.2109 57.9029 72.3139 60.7999 68.7502 60.7999H52.3745H52.3624H27.6351H27.623H11.2351C7.67145 60.7999 4.77448 57.9029 4.77448 54.3393V51.2241H75.2109V54.3393Z" fill="#283C9D"/>
<path d="M40.4686 59.418C42.3473 59.418 43.8867 57.8907 43.8867 55.9998C43.8867 54.121 42.3595 52.5938 40.4686 52.5938C38.5898 52.5938 37.0625 54.121 37.0625 55.9998C37.0625 57.8907 38.5898 59.418 40.4686 59.418ZM40.4686 54.8725C41.0989 54.8725 41.608 55.3816 41.608 55.9998C41.608 56.6301 41.0989 57.1392 40.4686 57.1392C39.8504 57.1392 39.3413 56.6301 39.3413 55.9998C39.3292 55.3816 39.8383 54.8725 40.4686 54.8725Z" fill="#283C9D"/>
<path d="M40.0003 9.67261C27.6609 9.67261 17.2973 20.0241 13.4064 24.4726C12.1458 25.915 12.1458 28.0968 13.4064 29.5514C17.2973 34.012 27.6609 44.3635 40.0003 44.3635C52.3276 44.3635 62.7034 33.9999 66.5943 29.5514C67.8549 28.109 67.8549 25.915 66.5943 24.4726C62.7034 20.0241 52.3397 9.67261 40.0003 9.67261ZM64.8852 28.0605C61.2003 32.2787 51.4064 42.0969 40.0003 42.0969C28.5821 42.0969 18.8003 32.2787 15.1276 28.0605C14.5943 27.4544 14.5943 26.5817 15.1276 25.9756C18.8003 21.7575 28.5943 11.9514 40.0003 11.9514C51.4064 11.9514 61.2003 21.7575 64.8731 25.9756C65.4064 26.5817 65.4064 27.4544 64.8852 28.0605Z" fill="#283C9D"/>
<path d="M50.7245 23.9271L50.3487 23.8544C50.1548 23.1999 49.8881 22.5696 49.5608 21.9635L49.7669 21.6483C50.4336 20.6544 50.3002 19.309 49.4396 18.4483L48.579 17.5877C47.7305 16.7393 46.3851 16.6059 45.3911 17.2605L45.0639 17.4787C44.4578 17.1514 43.8275 16.8968 43.173 16.6908L43.1002 16.315C42.8578 15.1393 41.8154 14.2908 40.6154 14.2908H39.3911C38.1911 14.2908 37.1366 15.1393 36.9063 16.315L36.8336 16.6908C36.179 16.8847 35.5487 17.1514 34.9427 17.4787L34.6275 17.2726C33.6214 16.6059 32.2881 16.7514 31.4275 17.5999L30.5669 18.4605C29.7184 19.309 29.5851 20.6544 30.2396 21.6483L30.4457 21.9756C30.1184 22.5817 29.8639 23.212 29.6578 23.8665L29.2821 23.9393C28.1063 24.1817 27.2578 25.2241 27.2578 26.4241V27.6362C27.2578 28.8362 28.1063 29.8787 29.2821 30.1211L29.6578 30.1938C29.8518 30.8483 30.1184 31.4786 30.4457 32.0847L30.2396 32.3999C29.573 33.4059 29.7184 34.7393 30.5669 35.5999L31.4275 36.4605C32.276 37.309 33.6214 37.4423 34.6154 36.7877L34.9427 36.5817C35.5487 36.909 36.179 37.1635 36.8336 37.3696L36.9063 37.7453C37.1487 38.9211 38.1911 39.7696 39.3911 39.7696H40.6154C41.8154 39.7696 42.8578 38.9211 43.1002 37.7453L43.173 37.3696C43.8275 37.1756 44.4578 36.909 45.0639 36.5817L45.379 36.7877C46.3851 37.4544 47.7305 37.309 48.579 36.4605L49.4396 35.5999C50.2881 34.7514 50.4215 33.4059 49.7669 32.412L49.5487 32.0847C49.876 31.4786 50.1305 30.8483 50.3366 30.1938L50.7124 30.1211C51.8881 29.8787 52.7366 28.8362 52.7366 27.6362V26.4241C52.7366 25.212 51.8881 24.1696 50.7245 23.9271ZM50.4699 27.6241C50.4699 27.7574 50.3851 27.8665 50.2639 27.8908L49.1972 28.109C48.7608 28.1938 48.4214 28.5332 48.3245 28.9696C48.1184 29.8665 47.7669 30.7271 47.2699 31.5271C47.0396 31.9029 47.0396 32.3756 47.2821 32.7514L47.876 33.6605C47.9487 33.7696 47.9245 33.9029 47.8396 33.9877L46.979 34.8483C46.8821 34.9453 46.7487 34.9574 46.6396 34.8847L45.7305 34.2908C45.3669 34.0483 44.8821 34.0483 44.5063 34.2787C43.7063 34.7756 42.8457 35.1271 41.9487 35.3453C41.5124 35.4423 41.1851 35.7817 41.0881 36.218L40.8699 37.2847C40.8457 37.4059 40.7366 37.4908 40.6033 37.4908H39.379C39.2457 37.4908 39.1366 37.4059 39.1124 37.2847L38.8942 36.218C38.7972 35.7817 38.4699 35.4423 38.0336 35.3453C37.1366 35.1393 36.276 34.7877 35.4881 34.2908C35.3063 34.1696 35.1002 34.1211 34.8821 34.1211C34.6639 34.1211 34.4457 34.1817 34.2639 34.3029L33.3427 34.8968C33.2336 34.9696 33.1002 34.9574 33.0154 34.8605L32.1548 33.9999C32.0578 33.9029 32.0457 33.7696 32.1184 33.6605L32.7245 32.7514C32.9669 32.3756 32.979 31.9029 32.7366 31.5271C32.2396 30.7271 31.876 29.8665 31.6699 28.9696C31.573 28.5332 31.2214 28.2059 30.7972 28.109L29.7305 27.8908C29.6093 27.8665 29.5245 27.7574 29.5245 27.6241V26.412C29.5245 26.2787 29.6093 26.1696 29.7305 26.1453L30.7972 25.9271C31.2336 25.8423 31.573 25.5029 31.6699 25.0665C31.876 24.1574 32.2396 23.2968 32.7245 22.509C32.9548 22.1332 32.9548 21.6483 32.7124 21.2847L32.1184 20.3756C32.0457 20.2665 32.0699 20.1332 32.1548 20.0362L33.0154 19.1756C33.1124 19.0786 33.2457 19.0665 33.3548 19.1393L34.2639 19.7332C34.6396 19.9756 35.1124 19.9756 35.4881 19.7453C36.276 19.2483 37.1366 18.8968 38.0336 18.6908C38.4699 18.5938 38.7972 18.2544 38.8942 17.818L39.1124 16.7514C39.1366 16.6302 39.2457 16.5453 39.379 16.5453H40.6033C40.7366 16.5453 40.8457 16.6302 40.8699 16.7514L41.0881 17.818C41.1851 18.2544 41.5124 18.5938 41.9487 18.6908C42.8457 18.8968 43.7063 19.2483 44.5063 19.7453C44.8821 19.9756 45.3548 19.9756 45.7305 19.7332L46.6396 19.1393C46.7487 19.0665 46.8821 19.0908 46.979 19.1756L47.8396 20.0362C47.9366 20.1332 47.9487 20.2665 47.876 20.3756L47.2699 21.2968C47.0275 21.6726 47.0275 22.1453 47.2578 22.5211C47.7548 23.309 48.1063 24.1574 48.3124 25.0665C48.4093 25.5029 48.7487 25.8302 49.1851 25.9271L50.2518 26.1453C50.373 26.1696 50.4578 26.2787 50.4578 26.412V27.6241H50.4699Z" fill="#283C9D"/>
<path d="M39.9981 20.606C36.4587 20.606 33.5859 23.4908 33.5859 27.0181C33.5859 30.5575 36.4708 33.4302 39.9981 33.4302C43.5375 33.4302 46.4102 30.5575 46.4102 27.0181C46.4102 23.4787 43.5375 20.606 39.9981 20.606ZM39.9981 31.1635C37.7072 31.1635 35.8526 29.309 35.8526 27.0181C35.8526 24.7272 37.7072 22.8726 39.9981 22.8726C42.2768 22.8726 44.1435 24.7272 44.1435 27.0181C44.1435 29.309 42.2768 31.1635 39.9981 31.1635Z" fill="#283C9D"/>
</svg>
