<svg width="80" height="80" viewBox="0 0 80 80" fill="none" xmlns="http://www.w3.org/2000/svg">
<path d="M72.8073 25.3132C74.4361 22.9627 75.3969 20.116 75.3969 17.0463C75.3969 9.01946 68.8659 2.48853 60.8391 2.48853C56.7011 2.48853 52.9698 4.23259 50.3169 7.01399C43.262 5.08587 35.8705 5.40087 29.0994 7.79134C26.427 4.55478 22.3853 2.48853 17.8703 2.48853C9.84344 2.48853 3.3125 9.01946 3.3125 17.0463C3.3125 21.2593 5.1225 25.0485 7.99266 27.7093C4.30047 36.482 4.29516 46.1771 7.73484 54.7674C6.14109 57.102 5.20594 59.9199 5.20594 62.9534C5.20594 70.9802 11.7369 77.5112 19.7637 77.5112C22.8697 77.5112 25.7455 76.5251 28.1117 74.861C32.247 76.4562 36.5969 77.2674 40.9431 77.2674C45.2572 77.2674 49.5561 76.4751 53.6219 74.9382C55.9681 76.5574 58.8069 77.5112 61.8669 77.5112C69.8937 77.5112 76.4247 70.9802 76.4247 62.9534C76.4247 60.0201 75.5453 57.2917 74.0469 55.0035C77.9842 45.354 77.4723 34.4868 72.8073 25.3132ZM60.8389 4.31837C67.8573 4.31837 73.5669 10.0281 73.5669 17.0463C73.5669 24.0646 67.8572 29.7743 60.8389 29.7743C53.8206 29.7743 48.1109 24.0646 48.1109 17.0463C48.1109 10.0281 53.8206 4.31837 60.8389 4.31837ZM5.14219 17.0463C5.14219 10.0279 10.8519 4.31837 17.8702 4.31837C24.8884 4.31837 30.5981 10.0281 30.5981 17.0463C30.5981 24.0646 24.8884 29.7743 17.8702 29.7743C10.8519 29.7743 5.14219 24.0648 5.14219 17.0463ZM7.03563 62.9535C7.03563 55.9351 12.7453 50.2256 19.7636 50.2256C26.7819 50.2256 32.4916 55.9352 32.4916 62.9535C32.4916 69.9718 26.7819 75.6815 19.7636 75.6815C12.7453 75.6815 7.03563 69.972 7.03563 62.9535ZM61.8669 75.6815C54.8484 75.6815 49.1389 69.9718 49.1389 62.9535C49.1389 55.9352 54.8486 50.2256 61.8669 50.2256C68.8852 50.2256 74.5948 55.9352 74.5948 62.9535C74.5948 69.9718 68.8852 75.6815 61.8669 75.6815ZM61.8669 48.3957C53.84 48.3957 47.3091 54.9267 47.3091 62.9535C47.3091 67.156 49.1098 70.937 51.9677 73.597C44.8108 76.0456 36.9586 76.0562 29.7395 73.5274C32.5533 70.8713 34.3216 67.119 34.3216 62.9537C34.3216 54.9268 27.7906 48.3959 19.7637 48.3959C15.5328 48.3959 11.7295 50.2213 9.06719 53.1131C6.24328 45.3742 6.31781 36.7799 9.47938 28.9223C11.8539 30.6051 14.7452 31.6045 17.8703 31.6045C25.8972 31.6045 32.4281 25.0735 32.4281 17.0466C32.4281 14.2127 31.6013 11.574 30.1948 9.33462C36.2248 7.31165 42.752 7.01696 49.0292 8.5679C47.3075 10.9588 46.2812 13.8821 46.2812 17.0468C46.2812 25.0737 52.8122 31.6046 60.8391 31.6046C65.0647 31.6046 68.8637 29.7837 71.5258 26.8984C75.4605 35.1237 75.9581 44.6798 72.7502 53.3184C70.0809 50.307 66.1973 48.3957 61.8669 48.3957Z" fill="#283C9D"/>
<path d="M64.6403 63.0805C65.982 62.1825 66.8678 60.6542 66.8678 58.9222C66.8678 56.1639 64.6241 53.9202 61.8658 53.9202C59.1081 53.9202 56.8645 56.1639 56.8645 58.9222C56.8645 60.6541 57.7502 62.1824 59.0916 63.0805C55.783 64.2328 53.3984 67.3758 53.3984 71.072C53.3984 71.5774 53.808 71.9869 54.3133 71.9869H69.4186C69.9239 71.9869 70.3334 71.5774 70.3334 71.072C70.3336 67.3759 67.9488 64.2331 64.6403 63.0805ZM61.8658 55.75C63.6148 55.75 65.038 57.1731 65.038 58.9222C65.038 60.6713 63.6148 62.0936 61.8658 62.0936C60.1167 62.0936 58.6944 60.6713 58.6944 58.9222C58.6942 57.1731 60.1167 55.75 61.8658 55.75ZM55.2913 70.157C55.738 66.9284 58.5163 64.4338 61.8658 64.4338C65.2159 64.4338 67.9942 66.9283 68.4409 70.157H55.2913Z" fill="#283C9D"/>
<path d="M53.2902 26.0797H68.3955C68.9008 26.0797 69.3103 25.6701 69.3103 25.1648C69.3103 21.4686 66.9253 18.3256 63.6166 17.1733C64.958 16.2753 65.8436 14.747 65.8436 13.015C65.8436 10.2567 63.5998 8.01294 60.8423 8.01294C58.0847 8.01294 55.8411 10.2567 55.8411 13.015C55.8411 14.7468 56.7267 16.2751 58.0681 17.1733C54.7595 18.3256 52.375 21.4686 52.375 25.1648C52.3752 25.6701 52.7847 26.0797 53.2902 26.0797ZM60.8423 9.84294C62.5914 9.84294 64.0138 11.2661 64.0138 13.0151C64.0138 14.7642 62.5914 16.1865 60.8423 16.1865C59.0933 16.1865 57.6709 14.7642 57.6709 13.0151C57.6709 11.2661 59.0933 9.84294 60.8423 9.84294ZM60.8423 18.5267C64.1925 18.5267 66.9708 21.0212 67.4175 24.25H54.2678C54.7147 21.0212 57.493 18.5267 60.8423 18.5267Z" fill="#283C9D"/>
<path d="M10.3136 26.0797H25.4189C25.9242 26.0797 26.3337 25.6701 26.3337 25.1648C26.3337 21.4686 23.9492 18.3256 20.6406 17.1733C21.9822 16.2753 22.8677 14.747 22.8677 13.015C22.8677 10.2567 20.6239 8.01294 17.8664 8.01294C15.1089 8.01294 12.8652 10.2567 12.8652 13.015C12.8652 14.7468 13.7508 16.2753 15.0922 17.1733C11.7834 18.3256 9.39844 21.4686 9.39844 25.1648C9.39875 25.6701 9.80828 26.0797 10.3136 26.0797ZM17.8667 9.84294C19.6158 9.84294 21.0381 11.2661 21.0381 13.0151C21.0381 14.7642 19.6158 16.1865 17.8667 16.1865C16.1177 16.1865 14.6953 14.7642 14.6953 13.0151C14.6953 11.2661 16.1177 9.84294 17.8667 9.84294ZM17.8667 18.5267C21.2161 18.5267 23.9945 21.0212 24.4412 24.25H11.2914C11.7381 21.0212 14.5166 18.5267 17.8667 18.5267Z" fill="#283C9D"/>
<path d="M22.5387 63.0805C23.8805 62.1825 24.7663 60.6542 24.7663 58.9222C24.7663 56.1639 22.5225 53.9202 19.7642 53.9202C17.0066 53.9202 14.763 56.1639 14.763 58.9222C14.763 60.6541 15.6486 62.1824 16.99 63.0805C13.6814 64.2328 11.2969 67.3758 11.2969 71.072C11.2969 71.5774 11.7064 71.9869 12.2117 71.9869H27.317C27.8223 71.9869 28.2319 71.5774 28.2319 71.072C28.232 67.3759 25.8472 64.2331 22.5387 63.0805ZM19.7642 55.75C21.5133 55.75 22.9364 57.1731 22.9364 58.9222C22.9364 60.6713 21.5133 62.0936 19.7642 62.0936C18.0152 62.0936 16.5928 60.6713 16.5928 58.9222C16.5927 57.1731 18.0152 55.75 19.7642 55.75ZM13.1897 70.157C13.6364 66.9284 16.4147 64.4338 19.7642 64.4338C23.1144 64.4338 25.8927 66.9283 26.3394 70.157H13.1897Z" fill="#283C9D"/>
</svg>
