<svg width="24" height="24" viewBox="0 0 24 24" fill="none" xmlns="http://www.w3.org/2000/svg">
<path d="M21.5955 21.6007V14.5687C21.5955 11.1127 20.8515 8.47266 16.8195 8.47266C14.8755 8.47266 13.5795 9.52866 13.0515 10.5367H13.0035V8.78466H9.1875V21.6007H13.1715V15.2407C13.1715 13.5607 13.4835 11.9527 15.5475 11.9527C17.5875 11.9527 17.6115 13.8487 17.6115 15.3367V21.5767H21.5955V21.6007Z" fill="#121212"/>
<path d="M2.71094 8.78516H6.69494V21.6012H2.71094V8.78516Z" fill="#121212"/>
<path d="M4.70244 2.40039C3.43044 2.40039 2.39844 3.43239 2.39844 4.70439C2.39844 5.97639 3.43044 7.03239 4.70244 7.03239C5.97444 7.03239 7.00644 5.97639 7.00644 4.70439C7.00644 3.43239 5.97444 2.40039 4.70244 2.40039Z" fill="#121212"/>
</svg>
