<svg width="72" height="72" viewBox="0 0 72 72" fill="none" xmlns="http://www.w3.org/2000/svg">
<path fill-rule="evenodd" clip-rule="evenodd" d="M69.0564 64.8428L59.9278 55.7141L58.2172 53.9973C58.1343 53.9157 57.9898 53.9111 57.9022 53.9973L54.139 57.7631C54.054 57.846 54.0542 57.9882 54.139 58.0709L55.8585 59.7877L64.9871 68.9165C65.0682 69.0002 65.2122 69.0002 65.2932 68.9165L69.0564 65.1508C69.1463 65.066 69.1463 64.9255 69.0564 64.8428ZM56.2185 34.7322C56.2185 46.5319 46.6665 56.0785 34.873 56.0785C29.1743 56.0785 23.8087 53.8575 19.7846 49.8269C11.457 41.5039 11.457 27.9604 19.7846 19.6381C23.9438 15.4772 29.4084 13.3957 34.873 13.3957C46.5681 13.3959 56.2185 22.8197 56.2185 34.7322ZM70.5689 66.6604L66.8057 70.4271C65.8879 71.3452 64.393 71.3455 63.4746 70.4271L55.0031 61.9556C49.3945 66.1175 42.7414 68.4025 35.7014 68.5717C28.3642 68.7482 21.3422 66.6164 15.3734 62.4068C14.8962 62.0682 14.7791 61.4002 15.1212 60.9186C15.4633 60.437 16.1295 60.3218 16.6066 60.662C27.626 68.4429 42.6154 68.2954 53.4727 60.4261C52.6818 59.6378 51.9422 59.101 51.9422 57.917C51.9422 57.2877 52.1852 56.6962 52.6263 56.2524L53.7516 55.1234L50.7087 52.0761C41.4604 60.53 27.1657 60.2359 18.2721 51.3378C9.11624 42.1821 9.11624 27.2826 18.2721 18.1269C27.4278 8.97207 42.3273 8.97207 51.483 18.1269C60.3721 27.022 60.6846 41.301 52.2212 50.5645L55.2641 53.6146L56.3985 52.4857C57.319 51.5647 58.8071 51.5709 59.7206 52.4857L60.5668 53.3292C67.9039 43.2029 68.5342 29.49 62.2682 18.7516L61.638 22.5481C61.539 23.1287 60.9898 23.5221 60.4046 23.4241C59.8194 23.326 59.4322 22.7749 59.5313 22.1933L60.6207 15.6772C60.6657 15.4071 60.8188 15.1551 61.0529 14.9831C61.0529 14.9831 61.0529 14.9831 61.0529 14.9813C61.0618 14.9804 61.0618 14.9804 61.0618 14.9804C61.0618 14.9786 61.0618 14.9786 61.0618 14.9786C61.298 14.8114 61.6343 14.7362 61.8991 14.8066V14.8076L68.273 16.9817C68.8313 17.1743 69.1282 17.7802 68.9393 18.3393C68.7502 18.8975 68.1471 19.1954 67.5799 19.0037L64.2218 17.8532C67.3188 23.2106 68.8673 29.2695 68.7142 35.5561C68.5431 42.5953 66.2564 49.2482 62.0972 54.8588L70.5687 63.3313C71.4871 64.2485 71.4871 65.7429 70.5689 66.6604ZM46.1446 23.4609C39.9198 17.2303 29.8321 17.2357 23.6018 23.4609C17.39 29.6754 17.39 39.789 23.6018 46.0036C29.8226 52.2181 39.9327 52.2181 46.1446 46.0036C52.3564 39.7892 52.3564 29.6754 46.1446 23.4609ZM47.6569 47.5135C40.5964 54.5633 29.1345 54.5575 22.0892 47.5135C15.049 40.4653 15.049 28.9994 22.0892 21.9513C29.1585 14.8853 40.5956 14.8885 47.6569 21.9513C54.706 28.9994 54.706 40.4652 47.6569 47.5135ZM36.2596 24.4764C35.7921 23.9457 35.3575 23.9137 34.7382 23.9137C33.7348 23.9137 32.9564 24.773 33.0817 25.7844L34.4321 36.8388C34.4946 37.349 35.2618 37.3421 35.3233 36.8388L36.6647 25.7844C36.7278 25.2831 36.5926 24.8554 36.2596 24.4764ZM37.862 23.0594C37.1148 22.2204 36.1335 21.7775 35.0081 21.7775H34.738C32.442 21.7775 30.6897 23.7663 30.9658 26.042L32.3073 37.0964C32.4604 38.3829 33.5586 39.3543 34.8551 39.3543C36.1902 39.3543 37.282 38.3981 37.439 37.0964L38.7894 26.042C38.9244 24.9292 38.6002 23.8985 37.862 23.0594ZM35.9804 44.4436C35.9804 43.8341 35.4852 43.338 34.873 43.338C34.2609 43.338 33.7657 43.834 33.7657 44.4436C33.7657 45.054 34.2609 45.5509 34.873 45.5509C35.4854 45.5508 35.9804 45.0538 35.9804 44.4436ZM38.1142 44.4436C38.1142 42.6565 36.6647 41.2017 34.8732 41.2017C33.0906 41.2017 31.6322 42.6565 31.6322 44.4436C31.6322 46.2333 33.0906 47.6873 34.8732 47.6873C36.6647 47.6871 38.1142 46.2332 38.1142 44.4436ZM10.2238 47.2713L9.12536 53.7892C9.0804 54.0538 8.93624 54.3033 8.70232 54.4743V54.4788C8.69336 54.4823 8.68424 54.4887 8.67528 54.4941V54.4959C8.41448 54.6685 8.1372 54.7162 7.84696 54.658C7.84696 54.658 7.84696 54.658 7.84696 54.6572L1.47304 52.4829C0.914804 52.2921 0.617844 51.6836 0.806964 51.1253C0.995924 50.5673 1.60824 50.2692 2.16632 50.4618L5.53336 51.6124C-2.08024 38.4071 0.118004 21.6172 10.935 10.7969C16.6156 5.11879 24.1418 1.63846 32.1362 0.993825C40.0316 0.356385 47.9359 2.50982 54.3729 7.05798C54.85 7.3983 54.9671 8.06438 54.6249 8.54614C54.2918 9.02775 53.6257 9.1431 53.1394 8.80278C40.5087 -0.115295 23.4036 1.35847 12.4473 12.3084C2.14824 22.6111 0.230804 38.3721 7.478 50.7185L8.1172 46.9185C8.21624 46.3351 8.76536 45.9434 9.34152 46.0407C9.92664 46.1388 10.3228 46.6906 10.2238 47.2713Z" fill="#283C9D"/>
</svg>
