<svg width="80" height="80" viewBox="0 0 80 80" fill="none" xmlns="http://www.w3.org/2000/svg">
<g clip-path="url(#clip0_116_2104)">
<path d="M21.25 73.75H58.75C59.0815 73.75 59.3995 73.6183 59.6339 73.3839C59.8683 73.1495 60 72.8315 60 72.5C60 72.1685 59.8683 71.8505 59.6339 71.6161C59.3995 71.3817 59.0815 71.25 58.75 71.25H21.25C20.9185 71.25 20.6005 71.3817 20.3661 71.6161C20.1317 71.8505 20 72.1685 20 72.5C20 72.8315 20.1317 73.1495 20.3661 73.3839C20.6005 73.6183 20.9185 73.75 21.25 73.75Z" fill="#283C9D"/>
<path d="M58.75 21.25H21.25C20.9185 21.25 20.6005 21.3817 20.3661 21.6161C20.1317 21.8505 20 22.1685 20 22.5C20 22.8315 20.1317 23.1495 20.3661 23.3839C20.6005 23.6183 20.9185 23.75 21.25 23.75H58.75C59.0815 23.75 59.3995 23.6183 59.6339 23.3839C59.8683 23.1495 60 22.8315 60 22.5C60 22.1685 59.8683 21.8505 59.6339 21.6161C59.3995 21.3817 59.0815 21.25 58.75 21.25Z" fill="#283C9D"/>
<path d="M61.25 8.75H53.75V11.25H61.25C61.9128 11.2507 62.5483 11.5143 63.017 11.983C63.4857 12.4517 63.7493 13.0872 63.75 13.75V75C63.7493 75.6628 63.4857 76.2983 63.017 76.767C62.5483 77.2357 61.9128 77.4993 61.25 77.5H18.75C18.0872 77.4993 17.4517 77.2357 16.983 76.767C16.5143 76.2983 16.2507 75.6628 16.25 75V13.75C16.2507 13.0872 16.5143 12.4517 16.983 11.983C17.4517 11.5143 18.0872 11.2507 18.75 11.25H26.25V8.75H18.75C17.4244 8.75152 16.1535 9.27879 15.2161 10.2161C14.2788 11.1535 13.7515 12.4244 13.75 13.75V75C13.7515 76.3256 14.2788 77.5965 15.2161 78.5339C16.1535 79.4712 17.4244 79.9985 18.75 80H61.25C62.5756 79.9985 63.8465 79.4712 64.7839 78.5339C65.7212 77.5965 66.2485 76.3256 66.25 75V13.75C66.2485 12.4244 65.7212 11.1535 64.7839 10.2161C63.8465 9.27879 62.5756 8.75152 61.25 8.75Z" fill="#283C9D"/>
<path d="M31.25 15H48.75C49.4128 14.9993 50.0483 14.7357 50.517 14.267C50.9857 13.7983 51.2493 13.1628 51.25 12.5V7.36115C51.2493 6.69832 50.9857 6.06285 50.517 5.59416C50.0483 5.12547 49.4128 4.86186 48.75 4.86115H45.7922C45.5523 3.4992 44.8402 2.26534 43.7809 1.37633C42.7216 0.487311 41.3829 0 40 0C38.6171 0 37.2784 0.487311 36.2191 1.37633C35.1598 2.26534 34.4477 3.4992 34.2078 4.86115H31.25C30.5872 4.86186 29.9517 5.12547 29.483 5.59416C29.0143 6.06285 28.7507 6.69832 28.75 7.36115V12.5C28.7507 13.1628 29.0143 13.7983 29.483 14.267C29.9517 14.7357 30.5872 14.9993 31.25 15ZM31.25 7.36115H35.3332C35.6648 7.36113 35.9827 7.22943 36.2171 6.99501C36.4515 6.7606 36.5832 6.44266 36.5832 6.11115C36.5575 5.64655 36.6268 5.18158 36.7869 4.74467C36.947 4.30776 37.1945 3.90809 37.5143 3.57009C37.8341 3.23209 38.2195 2.96286 38.6469 2.77886C39.0743 2.59487 39.5347 2.49997 40 2.49997C40.4653 2.49997 40.9257 2.59487 41.3531 2.77886C41.7805 2.96286 42.1659 3.23209 42.4857 3.57009C42.8055 3.90809 43.053 4.30776 43.2131 4.74467C43.3732 5.18158 43.4425 5.64655 43.4167 6.11115C43.4168 6.44266 43.5485 6.7606 43.7829 6.99501C44.0173 7.22943 44.3352 7.36113 44.6667 7.36115H48.75V12.5H31.25V7.36115Z" fill="#283C9D"/>
<path d="M58.7488 65H53.1085C51.7859 65.9917 50.3552 66.8304 48.8438 67.5H58.7488C59.0804 67.5 59.3983 67.3683 59.6327 67.1339C59.8672 66.8995 59.9988 66.5815 59.9988 66.25C59.9988 65.9185 59.8672 65.6005 59.6327 65.3661C59.3983 65.1317 59.0804 65 58.7488 65Z" fill="#283C9D"/>
<path d="M21.25 67.5H31.1551C29.6437 66.8304 28.213 65.9917 26.8903 65H21.25C20.9185 65 20.6005 65.1317 20.3661 65.3661C20.1317 65.6005 20 65.9185 20 66.25C20 66.5815 20.1317 66.8995 20.3661 67.1339C20.6005 67.3683 20.9185 67.5 21.25 67.5Z" fill="#283C9D"/>
<path d="M21.2483 61.25H23.0017C22.3593 60.4585 21.7728 59.6232 21.2463 58.7502C20.9153 58.7512 20.5981 58.8834 20.3645 59.118C20.1308 59.3525 19.9997 59.6701 20 60.0011C20.0003 60.3322 20.1318 60.6496 20.3659 60.8837C20.5999 61.1179 20.9172 61.2496 21.2483 61.25Z" fill="#283C9D"/>
<path d="M58.7554 58.7502C58.229 59.6232 57.6424 60.4585 57 61.25H58.7535C59.0845 61.2496 59.4019 61.1179 59.6359 60.8837C59.8699 60.6496 60.0015 60.3322 60.0017 60.0011C60.002 59.6701 59.8709 59.3525 59.6373 59.118C59.4036 58.8834 59.0865 58.7512 58.7554 58.7502Z" fill="#283C9D"/>
<path d="M58.7488 27.5H48.8438C50.3552 28.1696 51.7858 29.0083 53.1085 30H58.7488C59.0803 30 59.3983 29.8683 59.6327 29.6339C59.8671 29.3995 59.9988 29.0815 59.9988 28.75C59.9988 28.4185 59.8671 28.1005 59.6327 27.8661C59.3983 27.6317 59.0803 27.5 58.7488 27.5Z" fill="#283C9D"/>
<path d="M20 28.75C20 29.0815 20.1317 29.3994 20.3661 29.6339C20.6006 29.8683 20.9185 30 21.25 30H26.8903C28.213 29.0083 29.6437 28.1696 31.1551 27.5H21.25C20.9185 27.5 20.6006 27.6317 20.3661 27.8661C20.1317 28.1006 20 28.4185 20 28.75Z" fill="#283C9D"/>
<path d="M58.7535 33.75H57C57.6424 34.5415 58.229 35.3768 58.7555 36.2498C59.0865 36.2489 59.4036 36.1166 59.6373 35.8821C59.8709 35.6476 60.002 35.33 60.0018 34.9989C60.0015 34.6679 59.8699 34.3505 59.6359 34.1163C59.4019 33.8822 59.0845 33.7504 58.7535 33.75Z" fill="#283C9D"/>
<path d="M21.2463 36.2498C21.7728 35.3768 22.3593 34.5415 23.0017 33.75H21.2483C20.9172 33.7504 20.5999 33.8822 20.3659 34.1163C20.1318 34.3505 20.0003 34.6679 20 34.9989C19.9997 35.33 20.1308 35.6476 20.3645 35.8821C20.5981 36.1166 20.9153 36.2489 21.2463 36.2498Z" fill="#283C9D"/>
<path d="M20.625 47.5C20.625 51.332 21.7613 55.078 23.8903 58.2642C26.0192 61.4504 29.0452 63.9337 32.5855 65.4002C36.1258 66.8666 40.0215 67.2503 43.7799 66.5027C47.5383 65.7551 50.9905 63.9098 53.7002 61.2002C56.4098 58.4905 58.2551 55.0383 59.0027 51.2799C59.7503 47.5215 59.3666 43.6258 57.9002 40.0855C56.4337 36.5452 53.9504 33.5192 50.7642 31.3903C47.578 29.2613 43.832 28.125 40 28.125C34.8632 28.1308 29.9385 30.1739 26.3062 33.8062C22.6739 37.4385 20.6308 42.3632 20.625 47.5ZM40 30.625C43.3376 30.625 46.6002 31.6147 49.3752 33.4689C52.1503 35.3232 54.3132 37.9587 55.5905 41.0422C56.8677 44.1257 57.2019 47.5187 56.5507 50.7921C55.8996 54.0656 54.2924 57.0724 51.9324 59.4324C49.5724 61.7924 46.5656 63.3996 43.2921 64.0507C40.0187 64.7019 36.6257 64.3677 33.5422 63.0905C30.4587 61.8132 27.8232 59.6503 25.9689 56.8752C24.1147 54.1002 23.125 50.8376 23.125 47.5C23.1301 43.026 24.9096 38.7368 28.0732 35.5732C31.2368 32.4096 35.526 30.6301 40 30.625Z" fill="#283C9D"/>
<path d="M29.2561 52.3007C29.2561 52.3007 36.7851 57.8772 36.7885 57.8797C37.0535 58.0705 37.3819 58.1517 37.7054 58.1063C38.0288 58.0608 38.3221 57.8923 38.5243 57.6358L50.992 41.3858C51.0919 41.2556 51.1652 41.1069 51.2076 40.9483C51.2501 40.7898 51.2609 40.6244 51.2394 40.4617C51.218 40.2989 51.1647 40.142 51.0826 39.9998C51.0005 39.8577 50.8912 39.7331 50.7609 39.6332C50.6307 39.5333 50.482 39.46 50.3235 39.4175C50.1649 39.3751 49.9995 39.3643 49.8368 39.3857C49.674 39.4072 49.5171 39.4605 49.375 39.5426C49.2328 39.6247 49.1082 39.734 49.0083 39.8642L37.2889 55.1392L30.7442 50.2915C30.4777 50.0941 30.1438 50.0107 29.8159 50.0596C29.4879 50.1085 29.1928 50.2856 28.9955 50.5521C28.7982 50.8185 28.7148 51.1524 28.7637 51.4804C28.8125 51.8083 28.9897 52.1034 29.2561 52.3007Z" fill="#283C9D"/>
</g>
<defs>
<clipPath id="clip0_116_2104">
<rect width="80" height="80" fill="white"/>
</clipPath>
</defs>
</svg>
