<svg width="80" height="80" viewBox="0 0 80 80" fill="none" xmlns="http://www.w3.org/2000/svg">
<path d="M30.2151 70.8534C30.0844 70.8534 29.9514 70.8334 29.8199 70.7904C16.5159 66.3942 7.57812 54.0205 7.57812 40C7.57812 22.1243 22.1207 7.58093 39.997 7.58093C40.6928 7.58093 41.2564 8.14525 41.2564 8.84029C41.2564 9.53533 40.6928 10.0997 39.997 10.0997C23.51 10.0997 10.0968 23.5129 10.0968 40C10.0968 52.9318 18.341 64.3444 30.6103 68.3977C31.2706 68.6161 31.6298 69.328 31.4114 69.9893C31.2362 70.5182 30.744 70.8534 30.2151 70.8534Z" fill="#283C9D"/>
<path d="M39.9937 72.4188C39.2979 72.4188 38.7344 71.8545 38.7344 71.1594C38.7344 70.4644 39.2979 69.9001 39.9937 69.9001C56.4808 69.9001 69.8949 56.4869 69.8949 39.9999C69.8949 26.7973 61.0531 14.9925 48.395 11.2945C47.7269 11.0993 47.344 10.401 47.5384 9.73221C47.7337 9.06485 48.4349 8.67573 49.1006 8.87717C62.8277 12.8876 72.4136 25.6857 72.4136 40.0001C72.4136 57.8754 57.8702 72.4188 39.9937 72.4188Z" fill="#283C9D"/>
<path d="M37.281 14.2022C37.0427 14.2022 36.8013 14.1346 36.5875 13.9931C36.0072 13.6086 35.848 12.8275 36.2323 12.2478L38.3851 8.99408L35.5866 6.1416C35.0999 5.64496 35.1075 4.84704 35.6042 4.35952C36.1008 3.8736 36.8981 3.88128 37.3855 4.37632L40.8976 7.95776C41.3136 8.38208 41.3767 9.04032 41.0483 9.53536L38.3328 13.6379C38.0907 14.0038 37.6901 14.2022 37.281 14.2022Z" fill="#283C9D"/>
<path d="M43.507 76.0001C43.1803 76.0001 42.8542 75.8742 42.6075 75.6235L39.0945 72.0422C38.6787 71.6177 38.6155 70.9596 38.9438 70.4644L41.6601 66.362C42.0438 65.7838 42.8257 65.6238 43.4062 66.0068C43.9859 66.3911 44.1451 67.1723 43.7606 67.7521L41.607 71.0059L44.4065 73.8582C44.8933 74.3548 44.8856 75.1529 44.3888 75.6403C44.1435 75.8803 43.8253 76.0001 43.507 76.0001Z" fill="#283C9D"/>
<path d="M39.9996 62.2177C27.5759 62.2177 17.4688 52.1107 17.4688 39.6877C17.4688 33.2648 20.2204 27.131 25.0182 22.8577C25.5393 22.395 26.3344 22.4427 26.7974 22.9609C27.2593 23.4808 27.2132 24.2771 26.6942 24.7401C22.4326 28.535 19.9878 33.9832 19.9878 39.6878C19.9878 50.7222 28.9654 59.6992 39.9998 59.6992C42.1072 59.6992 44.1807 59.3733 46.162 58.7334C46.8232 58.512 47.5345 58.8811 47.7481 59.5438C47.9619 60.2049 47.599 60.9155 46.9371 61.1291C44.7049 61.8518 42.3708 62.2177 39.9996 62.2177Z" fill="#283C9D"/>
<path d="M53.7726 57.1558C53.416 57.1558 53.0616 57.0051 52.8125 56.7129C52.3621 56.1825 52.4258 55.3875 52.9562 54.9369C57.4386 51.1251 60.0094 45.5662 60.0094 39.6876C60.0094 28.6532 51.0317 19.6748 39.9965 19.6748C37.643 19.6748 35.3381 20.0791 33.1438 20.8788C32.488 21.1111 31.7677 20.7804 31.5293 20.1254C31.2917 19.4719 31.6285 18.7492 32.2827 18.5108C34.753 17.6113 37.3486 17.1562 39.9965 17.1562C52.421 17.1562 62.5282 27.2633 62.5282 39.6878C62.5282 46.3059 59.6342 52.5644 54.5875 56.8559C54.3509 57.0574 54.0611 57.1558 53.7726 57.1558Z" fill="#283C9D"/>
<path d="M39.9994 53.5699C32.3449 53.5699 26.1172 47.3424 26.1172 39.6876C26.1172 32.0315 32.3449 25.804 39.9994 25.804C47.6548 25.804 53.8823 32.0316 53.8823 39.6876C53.8825 47.3424 47.6548 53.5699 39.9994 53.5699ZM39.9994 28.3228C33.7333 28.3228 28.6359 33.4217 28.6359 39.6878C28.6359 45.9539 33.7333 51.0513 39.9994 51.0513C46.2655 51.0513 51.3636 45.9539 51.3636 39.6878C51.3636 33.4217 46.2655 28.3228 39.9994 28.3228Z" fill="#283C9D"/>
<path d="M37.3364 46.532C36.9204 46.5228 36.5598 46.3368 36.3284 46.0277L32.3768 40.7503C31.9592 40.1936 32.0731 39.4034 32.6295 38.9866C33.1854 38.573 33.9774 38.6837 34.3924 39.2402L37.3832 43.2336L44.6635 34.3935C45.1062 33.86 45.8988 33.78 46.4371 34.2228C46.9739 34.664 47.0507 35.4591 46.6086 35.9957L38.3089 46.0736C38.0691 46.3644 37.7123 46.532 37.3364 46.532Z" fill="#283C9D"/>
</svg>
